<svg width="687" height="727" viewBox="0 0 687 727" fill="none" xmlns="http://www.w3.org/2000/svg">
<path d="M402.307 133.869C282.456 89.4141 146.279 128.834 69.6499 232.892C29.1384 287.905 6.53565 359.701 41.0405 447.366C102.722 604.075 238.842 577.735 316.095 547.116C353.455 532.349 392.628 522.87 432.481 518.954C504.191 511.834 611.466 476.83 584.866 327.946C565.587 220.034 482.14 163.48 402.307 133.869Z" fill="url(#paint0_linear)"/>
<g clip-path="url(#clip0)">
<path d="M68.1074 238.215C60.966 238.215 53.985 236.097 48.0472 232.13C42.1094 228.162 37.4814 222.523 34.7485 215.925C32.0156 209.327 31.3006 202.067 32.6938 195.063C34.087 188.059 37.5259 181.625 42.5756 176.576C47.6253 171.526 54.059 168.087 61.0632 166.694C68.0673 165.301 75.3273 166.016 81.9251 168.749C88.5228 171.481 94.1621 176.109 98.1296 182.047C102.097 187.985 104.215 194.966 104.215 202.107C104.204 211.68 100.396 220.858 93.6272 227.627C86.8581 234.396 77.6803 238.204 68.1074 238.215ZM68.1074 167.504C61.2636 167.504 54.5735 169.534 48.883 173.336C43.1926 177.138 38.7575 182.543 36.1385 188.865C33.5194 195.188 32.8342 202.146 34.1694 208.858C35.5045 215.57 38.8001 221.736 43.6394 226.575C48.4787 231.415 54.6444 234.71 61.3567 236.045C68.069 237.381 75.0265 236.695 81.3494 234.076C87.6722 231.457 93.0765 227.022 96.8787 221.332C100.681 215.641 102.71 208.951 102.71 202.107C102.7 192.933 99.0509 184.138 92.5639 177.651C86.0768 171.164 77.2815 167.515 68.1074 167.504Z" fill="url(#paint1_linear)"/>
<path d="M313.337 217.152C309.766 217.152 306.275 216.093 303.306 214.11C300.338 212.126 298.024 209.306 296.657 206.007C295.291 202.709 294.933 199.079 295.63 195.577C296.326 192.074 298.046 188.858 300.571 186.333C303.096 183.808 306.312 182.088 309.815 181.392C313.317 180.695 316.947 181.053 320.245 182.419C323.544 183.786 326.364 186.1 328.348 189.069C330.331 192.037 331.39 195.528 331.39 199.099C331.385 203.885 329.481 208.474 326.096 211.859C322.712 215.243 318.123 217.147 313.337 217.152ZM313.337 182.549C310.064 182.549 306.864 183.52 304.142 185.338C301.421 187.157 299.3 189.742 298.047 192.766C296.795 195.789 296.467 199.117 297.105 202.327C297.744 205.537 299.32 208.486 301.635 210.801C303.949 213.115 306.898 214.691 310.108 215.33C313.318 215.968 316.646 215.641 319.67 214.388C322.694 213.136 325.278 211.014 327.097 208.293C328.915 205.571 329.886 202.372 329.886 199.099C329.881 194.711 328.136 190.505 325.033 187.402C321.931 184.3 317.724 182.554 313.337 182.549Z" fill="url(#paint2_linear)"/>
<path d="M440.465 305.164C436.448 305.164 432.521 303.973 429.181 301.741C425.841 299.509 423.238 296.337 421.701 292.626C420.163 288.915 419.761 284.831 420.545 280.891C421.328 276.951 423.263 273.332 426.103 270.492C428.944 267.651 432.563 265.717 436.503 264.933C440.442 264.15 444.526 264.552 448.237 266.089C451.949 267.626 455.121 270.229 457.352 273.57C459.584 276.91 460.775 280.836 460.775 284.853C460.769 290.238 458.627 295.401 454.82 299.208C451.012 303.016 445.85 305.158 440.465 305.164ZM440.465 266.047C436.745 266.047 433.109 267.15 430.017 269.217C426.924 271.283 424.514 274.22 423.09 277.657C421.667 281.093 421.295 284.874 422.02 288.522C422.746 292.17 424.537 295.521 427.167 298.151C429.797 300.781 433.148 302.572 436.796 303.298C440.444 304.024 444.225 303.651 447.662 302.228C451.098 300.804 454.035 298.394 456.101 295.301C458.168 292.209 459.271 288.573 459.271 284.853C459.265 279.867 457.282 275.087 453.757 271.562C450.231 268.036 445.451 266.053 440.465 266.047Z" fill="url(#paint3_linear)"/>
<path d="M605.247 510.524H435.994C435.794 510.524 435.603 510.445 435.462 510.304C435.321 510.163 435.242 509.972 435.242 509.772C435.242 509.573 435.321 509.381 435.462 509.24C435.603 509.099 435.794 509.02 435.994 509.02H605.247C605.447 509.02 605.638 509.099 605.779 509.24C605.92 509.381 606 509.573 606 509.772C606 509.972 605.92 510.163 605.779 510.304C605.638 510.445 605.447 510.524 605.247 510.524Z" fill="#CCCCCC"/>
<path d="M514.122 281.278C524.325 281.278 532.597 273.006 532.597 262.802C532.597 252.599 524.325 244.327 514.122 244.327C503.918 244.327 495.646 252.599 495.646 262.802C495.646 273.006 503.918 281.278 514.122 281.278Z" fill="#FFB8B8"/>
<path d="M516.038 482.198L507.306 485.163L491.71 452.893L504.598 448.516L516.038 482.198Z" fill="#FFB8B8"/>
<path d="M500.221 484.787L517.062 479.067L520.664 489.67L493.219 498.992C492.746 497.599 492.552 496.127 492.648 494.66C492.744 493.192 493.128 491.758 493.778 490.439C494.429 489.12 495.332 487.942 496.438 486.972C497.543 486.002 498.829 485.26 500.221 484.787Z" fill="#2F2E41"/>
<path d="M535.769 500.426L526.559 500.888L520.39 465.582L533.984 464.898L535.769 500.426Z" fill="#FFB8B8"/>
<path d="M519.847 498.588L537.611 497.695L538.173 508.879L509.225 510.334C509.151 508.865 509.367 507.397 509.861 506.011C510.355 504.626 511.117 503.352 512.103 502.261C513.09 501.17 514.281 500.285 515.61 499.654C516.939 499.024 518.379 498.662 519.847 498.588Z" fill="#2F2E41"/>
<path d="M480.957 383.118C481.783 382.383 482.438 381.475 482.875 380.459C483.312 379.444 483.521 378.344 483.488 377.239C483.454 376.134 483.179 375.049 482.681 374.062C482.183 373.074 481.474 372.208 480.605 371.524L489.387 346.118L475.853 349.577L469.589 373.173C468.536 374.709 468.084 376.577 468.318 378.424C468.551 380.272 469.454 381.969 470.855 383.195C472.257 384.421 474.059 385.09 475.921 385.076C477.783 385.062 479.574 384.365 480.957 383.118Z" fill="#FFB8B8"/>
<path d="M534.908 489.781C534.789 489.781 534.67 489.774 534.551 489.762L522.049 488.438C521.281 488.36 520.562 488.021 520.015 487.477C519.467 486.932 519.123 486.216 519.041 485.449L509.379 399.31L502.387 422.882L515.423 469.207C515.555 469.678 515.584 470.173 515.507 470.657C515.429 471.141 515.248 471.603 514.975 472.01C514.702 472.417 514.344 472.759 513.925 473.014C513.507 473.269 513.038 473.43 512.551 473.486L499.877 474.943C499.07 475.032 498.258 474.83 497.587 474.373C496.916 473.915 496.431 473.233 496.219 472.449L482.371 420.317C482.257 419.888 482.229 419.442 482.287 419.002L488.511 372.214L534.935 375.936L538.292 486.292C538.305 486.745 538.228 487.196 538.064 487.619C537.901 488.042 537.654 488.427 537.338 488.752C537.022 489.078 536.645 489.336 536.227 489.513C535.81 489.69 535.361 489.781 534.908 489.781V489.781Z" fill="#2F2E41"/>
<path d="M518.861 383.937C503.308 383.937 485.699 377.928 484.632 377.559L484.324 377.452L501.87 287.421L502.192 287.434C509.146 287.716 528.122 287.861 528.313 287.862L528.653 287.865L535.967 367.315L537.274 378.936L537.114 379.066C532.64 382.683 525.965 383.937 518.861 383.937Z" fill="black"/>
<path d="M490.762 376.157L479.788 371.736L485.381 304.077C485.516 302.409 486.024 300.792 486.866 299.347C487.709 297.901 488.866 296.663 490.252 295.724L496.027 291.794C495.863 291.239 495.834 290.652 495.941 290.083C496.048 289.514 496.289 288.978 496.643 288.52C496.998 288.062 497.456 287.694 497.98 287.448C498.504 287.201 499.079 287.082 499.658 287.101L501.312 287.154C501.626 286.942 501.997 286.83 502.376 286.833C502.756 286.835 503.125 286.953 503.436 287.169C503.748 287.385 503.986 287.691 504.121 288.045C504.256 288.4 504.28 288.787 504.191 289.155L503.827 296.324L490.762 376.157Z" fill="#2F2E41"/>
<path d="M485.225 364.027L470.896 363.424L475.537 333.566L479.384 305.471C479.46 304.462 479.762 303.483 480.269 302.608C480.776 301.732 481.475 300.983 482.312 300.415C483.15 299.848 484.105 299.477 485.106 299.33C486.107 299.184 487.128 299.265 488.093 299.569C489.596 300.04 490.885 301.026 491.734 302.353C492.584 303.68 492.939 305.263 492.738 306.826L488.841 337.267L485.225 364.027Z" fill="#2F2E41"/>
<path d="M507.914 377.191L507.817 376.89C507.75 376.683 501.293 355.969 512.098 331.25L517.516 304.301L522.147 287.379C522.234 287.077 522.39 286.799 522.603 286.567C522.816 286.336 523.08 286.157 523.374 286.045C523.72 285.926 524.093 285.91 524.447 286.001C524.802 286.093 525.121 286.286 525.366 286.557C528.594 285.61 532.064 285.957 535.04 287.525L541.543 290.95C542.989 291.712 544.141 292.932 544.819 294.419C545.497 295.906 545.663 297.576 545.29 299.167L536.402 337.097L540.723 372.525L507.914 377.191Z" fill="#2F2E41"/>
<path d="M517.377 362.588C518.476 362.707 519.589 362.584 520.635 362.227C521.682 361.87 522.638 361.288 523.435 360.522C524.232 359.756 524.852 358.824 525.25 357.792C525.649 356.761 525.816 355.654 525.74 354.551L545.867 339.641L538.832 336.306L517.129 347.485C515.284 347.735 513.594 348.653 512.381 350.065C511.168 351.477 510.514 353.285 510.545 355.147C510.575 357.009 511.288 358.794 512.547 360.166C513.806 361.537 515.525 362.399 517.377 362.588V362.588Z" fill="#FFB8B8"/>
<path d="M529.996 355.914L523.198 343.224L539.963 332.191L531.782 302.846C531.454 301.671 531.372 300.441 531.541 299.233C531.71 298.025 532.126 296.865 532.764 295.825C533.401 294.785 534.246 293.888 535.246 293.189C536.246 292.491 537.379 292.006 538.574 291.764C540.687 291.343 542.881 291.703 544.749 292.777C546.617 293.851 548.031 295.567 548.73 297.605L559.769 330.053C559.996 330.721 560.009 331.444 559.805 332.121C559.601 332.797 559.191 333.392 558.631 333.824L529.996 355.914Z" fill="#2F2E41"/>
<path d="M515.429 266.721C513.214 267.009 511.544 264.743 510.769 262.648C509.994 260.554 509.403 258.115 507.478 256.984C504.847 255.438 501.481 257.297 498.473 256.787C495.075 256.211 492.866 252.61 492.693 249.169C492.52 245.727 493.89 242.417 495.234 239.244L495.703 243.187C495.64 241.851 495.921 240.521 496.519 239.324C497.118 238.127 498.013 237.104 499.12 236.352L498.515 242.138C498.644 241.34 498.929 240.575 499.354 239.887C499.779 239.199 500.336 238.602 500.992 238.13C501.649 237.658 502.392 237.32 503.18 237.136C503.967 236.952 504.783 236.925 505.581 237.057L505.485 240.504C509.409 240.038 513.368 239.571 517.303 239.926C521.239 240.281 525.202 241.527 528.185 244.119C532.647 247.996 534.277 254.38 533.73 260.266C533.183 266.151 530.753 271.681 528.221 277.022C527.584 278.366 526.702 279.882 525.225 280.053C523.898 280.207 522.683 279.098 522.27 277.827C521.952 276.523 521.965 275.16 522.306 273.862C522.68 271.878 523.15 269.85 522.799 267.862C522.448 265.874 521.018 263.91 519.014 263.666C517.01 263.422 514.96 265.713 515.923 267.487L515.429 266.721Z" fill="#2F2E41"/>
<path d="M273.701 469.586L266.509 466.558L261.576 430.504H195.875L190.528 466.41L184.093 469.628C183.786 469.781 183.539 470.035 183.393 470.347C183.247 470.658 183.211 471.01 183.29 471.345C183.369 471.68 183.559 471.979 183.829 472.192C184.098 472.406 184.433 472.522 184.777 472.522H273.109C273.461 472.522 273.803 472.4 274.076 472.177C274.349 471.953 274.537 471.642 274.606 471.297C274.676 470.951 274.624 470.592 274.459 470.28C274.294 469.968 274.027 469.723 273.701 469.586Z" fill="#E6E6E6"/>
<path d="M390.455 435.301H67.7168C66.0235 435.297 64.4009 434.622 63.2048 433.423C62.0088 432.224 61.3371 430.6 61.3371 428.907V383.396H396.835V428.907C396.835 430.6 396.163 432.224 394.967 433.423C393.771 434.622 392.149 435.297 390.455 435.301Z" fill="#CCCCCC"/>
<path d="M397.173 404.906H61.0429V210.177C61.0452 208.133 61.8581 206.174 63.3032 204.729C64.7483 203.284 66.7075 202.471 68.7511 202.469H389.464C391.508 202.471 393.467 203.284 394.912 204.729C396.357 206.174 397.17 208.133 397.173 210.177V404.906Z" fill="black"/>
<path d="M377.097 390.773H81.1184C79.5429 390.771 78.0324 390.144 76.9184 389.03C75.8044 387.916 75.1777 386.406 75.1759 384.83V222.545C75.1777 220.969 75.8043 219.459 76.9184 218.345C78.0324 217.231 79.5428 216.604 81.1184 216.602H377.097C378.672 216.604 380.183 217.231 381.297 218.345C382.411 219.459 383.037 220.969 383.039 222.545V384.83C383.037 386.406 382.411 387.916 381.297 389.03C380.183 390.144 378.672 390.771 377.097 390.773Z" fill="white"/>
<path d="M374.311 472.898H87.7088C87.5093 472.898 87.3179 472.819 87.1769 472.678C87.0358 472.537 86.9566 472.345 86.9566 472.146C86.9566 471.946 87.0358 471.755 87.1769 471.614C87.3179 471.473 87.5093 471.394 87.7088 471.394H374.311C374.511 471.394 374.702 471.473 374.843 471.614C374.984 471.755 375.063 471.946 375.063 472.146C375.063 472.345 374.984 472.537 374.843 472.678C374.702 472.819 374.511 472.898 374.311 472.898Z" fill="#CCCCCC"/>
<path d="M349.291 370.609H108.924C108.725 370.609 108.533 370.529 108.392 370.388C108.251 370.247 108.172 370.056 108.172 369.856V254.649C108.172 254.449 108.251 254.258 108.392 254.117C108.533 253.976 108.725 253.896 108.924 253.896C109.124 253.896 109.315 253.976 109.456 254.117C109.597 254.258 109.676 254.449 109.676 254.649V369.104H349.291C349.49 369.104 349.681 369.183 349.822 369.324C349.964 369.466 350.043 369.657 350.043 369.856C350.043 370.056 349.964 370.247 349.822 370.388C349.681 370.529 349.49 370.609 349.291 370.609Z" fill="black"/>
<path d="M160.28 362.334H138.418C137.826 362.333 137.258 362.098 136.84 361.679C136.421 361.261 136.186 360.693 136.185 360.101V329.964C136.186 329.372 136.421 328.804 136.84 328.386C137.258 327.967 137.826 327.732 138.418 327.731H160.28C160.872 327.732 161.44 327.967 161.858 328.386C162.277 328.804 162.512 329.372 162.513 329.964V360.101C162.512 360.693 162.277 361.261 161.858 361.679C161.44 362.098 160.872 362.333 160.28 362.334Z" fill="url(#paint4_linear)"/>
<path d="M200.149 362.334H178.287C177.695 362.333 177.127 362.098 176.708 361.679C176.29 361.261 176.054 360.693 176.054 360.101V301.379C176.054 300.787 176.29 300.219 176.708 299.801C177.127 299.382 177.695 299.147 178.287 299.146H200.149C200.741 299.147 201.308 299.382 201.727 299.801C202.146 300.219 202.381 300.787 202.382 301.379V360.101C202.381 360.693 202.146 361.261 201.727 361.679C201.308 362.098 200.741 362.333 200.149 362.334Z" fill="url(#paint5_linear)"/>
<path d="M240.017 362.334H218.155C217.563 362.333 216.995 362.098 216.577 361.679C216.158 361.261 215.923 360.693 215.922 360.101V329.964C215.923 329.372 216.158 328.804 216.577 328.386C216.995 327.967 217.563 327.732 218.155 327.731H240.017C240.609 327.732 241.177 327.967 241.595 328.386C242.014 328.804 242.249 329.372 242.25 329.964V360.101C242.249 360.693 242.014 361.261 241.595 361.679C241.177 362.098 240.609 362.333 240.017 362.334Z" fill="url(#paint6_linear)"/>
<path d="M279.886 362.334H258.024C257.445 362.346 256.885 362.129 256.467 361.729C256.048 361.33 255.805 360.781 255.791 360.202V289.994C255.805 289.416 256.048 288.866 256.467 288.467C256.885 288.067 257.445 287.85 258.024 287.862H279.886C280.464 287.85 281.024 288.067 281.443 288.467C281.861 288.866 282.104 289.416 282.119 289.994V360.202C282.104 360.781 281.861 361.33 281.443 361.729C281.024 362.129 280.464 362.346 279.886 362.334Z" fill="url(#paint7_linear)"/>
<path d="M319.754 362.334H297.892C297.3 362.334 296.732 362.098 296.314 361.679C295.895 361.261 295.66 360.693 295.659 360.101V269.785C295.66 269.193 295.895 268.626 296.314 268.207C296.732 267.788 297.3 267.553 297.892 267.552H319.754C320.346 267.553 320.914 267.788 321.332 268.207C321.751 268.626 321.986 269.193 321.987 269.785V360.101C321.986 360.693 321.751 361.261 321.332 361.679C320.914 362.098 320.346 362.334 319.754 362.334Z" fill="url(#paint8_linear)"/>
<path d="M149.349 318.704C151.841 318.704 153.862 316.683 153.862 314.191C153.862 311.698 151.841 309.677 149.349 309.677C146.856 309.677 144.835 311.698 144.835 314.191C144.835 316.683 146.856 318.704 149.349 318.704Z" fill="url(#paint9_linear)"/>
<path d="M189.218 289.367C191.711 289.367 193.731 287.346 193.731 284.854C193.731 282.361 191.711 280.34 189.218 280.34C186.725 280.34 184.704 282.361 184.704 284.854C184.704 287.346 186.725 289.367 189.218 289.367Z" fill="url(#paint10_linear)"/>
<path d="M229.086 318.704C231.579 318.704 233.6 316.683 233.6 314.191C233.6 311.698 231.579 309.677 229.086 309.677C226.593 309.677 224.573 311.698 224.573 314.191C224.573 316.683 226.593 318.704 229.086 318.704Z" fill="url(#paint11_linear)"/>
<path d="M268.955 275.074C271.448 275.074 273.468 273.053 273.468 270.561C273.468 268.068 271.448 266.047 268.955 266.047C266.462 266.047 264.441 268.068 264.441 270.561C264.441 273.053 266.462 275.074 268.955 275.074Z" fill="url(#paint12_linear)"/>
<path d="M308.824 258.525C311.316 258.525 313.337 256.505 313.337 254.012C313.337 251.519 311.316 249.499 308.824 249.499C306.331 249.499 304.31 251.519 304.31 254.012C304.31 256.505 306.331 258.525 308.824 258.525Z" fill="url(#paint13_linear)"/>
<path d="M229.181 315.202L189.218 285.269L149.801 314.793L148.898 313.589L189.218 283.389L228.992 313.18L268.515 269.928L268.674 269.863L308.542 253.8L309.105 255.195L269.395 271.195L229.181 315.202Z" fill="url(#paint14_linear)"/>
</g>
<defs>
<linearGradient id="paint0_linear" x1="371.74" y1="656.724" x2="607.704" y2="-163.681" gradientUnits="userSpaceOnUse">
<stop stop-color="#35CC79"/>
<stop offset="1" stop-color="#347D55" stop-opacity="0.65"/>
</linearGradient>
<linearGradient id="paint1_linear" x1="39.7029" y1="232.289" x2="130.35" y2="200.699" gradientUnits="userSpaceOnUse">
<stop stop-color="#BE8515"/>
<stop offset="1" stop-color="#E0A50E" stop-opacity="0.49"/>
</linearGradient>
<linearGradient id="paint2_linear" x1="299.134" y1="214.19" x2="344.458" y2="198.395" gradientUnits="userSpaceOnUse">
<stop stop-color="#BE8515"/>
<stop offset="1" stop-color="#E0A50E" stop-opacity="0.49"/>
</linearGradient>
<linearGradient id="paint3_linear" x1="424.487" y1="301.831" x2="475.476" y2="284.061" gradientUnits="userSpaceOnUse">
<stop stop-color="#BE8515"/>
<stop offset="1" stop-color="#E0A50E" stop-opacity="0.49"/>
</linearGradient>
<linearGradient id="paint4_linear" x1="138.993" y1="359.495" x2="182.065" y2="347.956" gradientUnits="userSpaceOnUse">
<stop stop-color="#35CC79"/>
<stop offset="1" stop-color="#347D55" stop-opacity="0.65"/>
</linearGradient>
<linearGradient id="paint5_linear" x1="178.862" y1="357.149" x2="224.052" y2="350.52" gradientUnits="userSpaceOnUse">
<stop stop-color="#35CC79"/>
<stop offset="1" stop-color="#347D55" stop-opacity="0.65"/>
</linearGradient>
<linearGradient id="paint6_linear" x1="218.73" y1="359.495" x2="261.802" y2="347.956" gradientUnits="userSpaceOnUse">
<stop stop-color="#35CC79"/>
<stop offset="1" stop-color="#347D55" stop-opacity="0.65"/>
</linearGradient>
<linearGradient id="paint7_linear" x1="258.599" y1="356.224" x2="304.057" y2="350.565" gradientUnits="userSpaceOnUse">
<stop stop-color="#35CC79"/>
<stop offset="1" stop-color="#347D55" stop-opacity="0.65"/>
</linearGradient>
<linearGradient id="paint8_linear" x1="298.467" y1="354.557" x2="344.192" y2="350.085" gradientUnits="userSpaceOnUse">
<stop stop-color="#35CC79"/>
<stop offset="1" stop-color="#347D55" stop-opacity="0.65"/>
</linearGradient>
<linearGradient id="paint9_linear" x1="145.798" y1="317.963" x2="159.879" y2="313.005" gradientUnits="userSpaceOnUse">
<stop stop-color="#35CC79"/>
<stop offset="1" stop-color="#347D55" stop-opacity="0.65"/>
</linearGradient>
<linearGradient id="paint10_linear" x1="185.667" y1="288.627" x2="199.749" y2="283.669" gradientUnits="userSpaceOnUse">
<stop stop-color="#35CC79"/>
<stop offset="1" stop-color="#347D55" stop-opacity="0.65"/>
</linearGradient>
<linearGradient id="paint11_linear" x1="225.536" y1="317.963" x2="239.617" y2="313.005" gradientUnits="userSpaceOnUse">
<stop stop-color="#35CC79"/>
<stop offset="1" stop-color="#347D55" stop-opacity="0.65"/>
</linearGradient>
<linearGradient id="paint12_linear" x1="265.404" y1="274.334" x2="279.486" y2="269.376" gradientUnits="userSpaceOnUse">
<stop stop-color="#35CC79"/>
<stop offset="1" stop-color="#347D55" stop-opacity="0.65"/>
</linearGradient>
<linearGradient id="paint13_linear" x1="305.273" y1="257.785" x2="319.355" y2="252.827" gradientUnits="userSpaceOnUse">
<stop stop-color="#35CC79"/>
<stop offset="1" stop-color="#347D55" stop-opacity="0.65"/>
</linearGradient>
<linearGradient id="paint14_linear" x1="165.987" y1="310.164" x2="318.323" y2="170.219" gradientUnits="userSpaceOnUse">
<stop stop-color="#35CC79"/>
<stop offset="1" stop-color="#347D55" stop-opacity="0.65"/>
</linearGradient>
<clipPath id="clip0">
<rect width="574" height="344.525" fill="white" transform="translate(32 166)"/>
</clipPath>
</defs>
</svg>
